<?xml version="1.0" standalone="no"?>
<!DOCTYPE svg PUBLIC "-//W3C//DTD SVG 1.1//EN" "http://www.w3.org/Graphics/SVG/1.1/DTD/svg11.dtd" >
<svg xmlns="http://www.w3.org/2000/svg" xmlns:xlink="http://www.w3.org/1999/xlink" version="1.1">
<metadata></metadata>
<defs>
<font id="chaos_mathregular" horiz-adv-x="825" >
<font-face units-per-em="2048" ascent="1536" descent="-512" />
<missing-glyph horiz-adv-x="544" />
<glyph horiz-adv-x="0" />
<glyph unicode="&#xd;" horiz-adv-x="1024" />
<glyph unicode=" "  horiz-adv-x="544" />
<glyph unicode="&#x09;" horiz-adv-x="544" />
<glyph unicode="&#xa0;" horiz-adv-x="544" />
<glyph unicode="!" horiz-adv-x="407" d="M0 172q0 39 15.5 73t41.5 56h-57v492h346v-492h-59q59 -49 59 -129q0 -35 -13.5 -66.5t-37 -55t-55 -37t-68.5 -13.5q-72 0 -122 50t-50 122z" />
<glyph unicode="%" horiz-adv-x="872" d="M0 0l295 451q-41 -29 -94 -29q-72 0 -122 51t-50 123q0 35 13 66.5t36.5 55t54.5 37t68 13.5t67.5 -13.5t54 -37t37 -55t13.5 -66.5q0 -20 -2 -29l118 178h340l-301 -460q46 39 109 39q72 0 122 -50.5t50 -121.5q0 -37 -13.5 -69t-37 -55.5t-55 -37t-66.5 -13.5 q-72 0 -122 51.5t-50 123.5q0 23 6 45l-129 -197h-342z" />
<glyph unicode="&#x26;" horiz-adv-x="919" d="M-2 332q0 78 32.5 145.5t88.5 114.5q-4 12 -4 24.5v24.5q0 61 23.5 116.5t64.5 96.5t95 64.5t118 23.5q61 0 116.5 -23.5t95.5 -64.5t63.5 -96.5t23.5 -116.5q0 -68 -28 -126t-75 -99l72 -107l125 -188l78 -119h-340l-25 39q-41 -25 -86 -39t-96 -14q-72 0 -133.5 26.5 t-108.5 73.5t-73.5 109.5t-26.5 134.5z" />
<glyph unicode="(" horiz-adv-x="256" d="M6 518q0 123 14.5 230.5t39 189.5t57.5 131t69 55v-1212q-37 6 -69.5 55t-57 131t-39 189.5t-14.5 230.5z" />
<glyph unicode=")" horiz-adv-x="264" d="M-2 -88v1212q37 -6 69.5 -55t57.5 -131t39 -189.5t14 -230.5t-14 -230.5t-39 -189.5t-57.5 -131t-69.5 -55z" />
<glyph unicode="*" horiz-adv-x="456" d="M0 899l111 53l82 86l81 -86l111 -53l-59 -102l-15 -125l-118 26l-119 -26l-15 125z" />
<glyph unicode="+" d="M2 201v346h195v201h346v-201h205v-346h-205v-199h-346v199h-195z" />
<glyph unicode="," horiz-adv-x="407" d="M0 168q0 72 50 122t122 50q37 0 68.5 -13.5t55 -37t37 -55t13.5 -66.5v-174h-174q-35 0 -66.5 13t-55 37t-37 55.5t-13.5 68.5z" />
<glyph unicode="-" d="M0 201v346h745v-346h-745z" />
<glyph unicode="." horiz-adv-x="423" d="M0 170q0 72 50 122t122 50q37 0 68.5 -13.5t55 -37t37 -55t13.5 -66.5q0 -72 -51 -123t-123 -51q-35 0 -66.5 13.5t-55 37t-37 55t-13.5 68.5z" />
<glyph unicode="0" horiz-adv-x="688" d="M-4 379q0 80 23.5 148.5t64.5 120.5t96.5 82t118.5 30h35q63 0 118.5 -30t96.5 -82t64.5 -120.5t23.5 -148.5q0 -78 -23.5 -147.5t-64.5 -121t-96.5 -81t-118.5 -29.5h-35q-63 0 -118.5 29.5t-96.5 81t-64.5 121t-23.5 147.5z" />
<glyph unicode="1" horiz-adv-x="415" d="M0 2v746h346v-746h-346z" />
<glyph unicode="2" horiz-adv-x="743" d="M-2 -4v199l172 176l-160 -33q-12 43 -12 90q0 66 27.5 123t73.5 100t105.5 67.5t123.5 24.5h18q63 0 121.5 -24.5t103.5 -67.5t73 -100t28 -123q0 -61 -21.5 -116.5t-60.5 -96.5h80v-219h-672z" />
<glyph unicode="3" horiz-adv-x="657" d="M2 633q41 55 96.5 93t141.5 38l-2 2q14 0 22 2h12h15h4q8 -2 26 -2h-10q63 0 117.5 -20.5t93.5 -56.5t60.5 -84t21.5 -103q0 -61 -35 -119q39 -59 39 -125q0 -55 -21.5 -103.5t-60.5 -85t-93 -57t-120 -20.5l2 -2h-22v-2h-13h-14v2h-4h-27h11q-68 0 -127.5 22.5 t-102.5 61.5l76 168h-63v211h57z" />
<glyph unicode="4" horiz-adv-x="712" d="M-41 143l471 629h178v-321h35v-312h-41v-141h-311v145h-332z" />
<glyph unicode="5" horiz-adv-x="704" d="M0 315v23v164v266h6h635l-109 -217q49 -41 79 -101.5t30 -132.5q0 -59 -14.5 -104t-37 -77t-51 -53.5t-59.5 -35.5q-70 -33 -160 -33t-159 31q-31 12 -59.5 33.5t-51 54.5t-36 78t-13.5 104z" />
<glyph unicode="6" horiz-adv-x="694" d="M6 303q2 53 9.5 110.5t13.5 98.5q6 35 26.5 85t79.5 110q31 29 63.5 44t61.5 21q33 8 66 6q82 0 149 -41l-2 2q6 -2 19 -10v2q4 -2 5 -3t5 -3l-92 -154q2 0 3 -1t5 -1l-8 2q57 -10 105 -42.5t79 -79t44 -103.5t3 -119q-10 -61 -42 -110t-78 -82t-102.5 -47.5t-115.5 -3.5 l4 -2q-8 2 -20 2q-4 0 -6 1t-7 1q-4 0 -6 1t-6 1q-2 0 -2 1t-2 1q-8 0 -25 4l11 -2q-55 10 -100.5 38.5t-77 70.5t-48 94.5t-12.5 107.5z" />
<glyph unicode="7" horiz-adv-x="673" d="M-2 479v275h639l-299 -756h-336l188 481h-192z" />
<glyph unicode="8" horiz-adv-x="655" d="M31 498q0 82 43 147.5t110 93.5q23 10 44.5 14.5t41.5 8.5q23 4 45 4q29 0 54.5 -5t44.5 -11q23 -8 41 -15q63 -33 101 -95t38 -140q0 -66 -27 -117q29 -57 29 -125q0 -84 -43 -149.5t-111 -96.5q-23 -10 -44 -14l-42 -8q-23 -4 -45 -4q-29 0 -54.5 5t-43.5 11 q-23 8 -41 16q-61 33 -100 97.5t-39 142.5q0 61 26 119q-29 57 -28 121z" />
<glyph unicode="9" horiz-adv-x="688" d="M-2 528q10 61 42 111.5t77 83.5t101 47t116 4h-4q14 0 22 -2v2q4 -2 10 -2q4 -2 15 -2l-2 -2h4l24 -6l-10 2q55 -10 100.5 -38t77 -70t48 -94t12.5 -107q-2 -53 -9.5 -110.5t-13.5 -98.5q-6 -35 -26.5 -85t-79.5 -110q-31 -29 -63.5 -44t-61.5 -21q-33 -8 -64 -6 q-39 0 -76.5 9t-72.5 31v-2l-9 4.5t-10 4.5q-4 2 -5 3t-5 3l92 153q-4 0 -6 2l6 -2q-59 10 -106 43t-78 79t-43 103.5t-2 116.5z" />
<glyph unicode=":" horiz-adv-x="440" d="M2 172q0 47 22.5 86t59.5 61q-37 23 -59.5 62t-22.5 86q0 37 13.5 68.5t37 55t55 37t66.5 13.5q72 0 123 -51t51 -123q0 -47 -23.5 -86t-60.5 -62q37 -23 60.5 -61.5t23.5 -85.5q0 -35 -13 -66.5t-37 -55t-55.5 -37t-68.5 -13.5q-72 0 -122 50t-50 122z" />
<glyph unicode="=" horiz-adv-x="696" d="M2 106v209h619v-209h-619zM2 403v207h619v-207h-619z" />
<glyph unicode="A" horiz-adv-x="872" d="M0 0v295q0 23 1 39t3 26q2 12 4 23q39 150 131 240q23 23 55.5 46t76.5 42.5t100.5 32t124.5 12.5h301v-756h-797z" />
<glyph unicode="B" horiz-adv-x="751" d="M0 -2v1040h328v-282h24q70 0 132.5 -30t109.5 -81t73.5 -119.5t26.5 -146.5q0 -80 -28.5 -148.5t-78.5 -121t-117 -82t-142 -29.5h-328z" />
<glyph unicode="C" horiz-adv-x="727" d="M-2 369v10q4 78 24.5 135t51 99t67.5 69t76 43q85 35 190 35h11h250v-762h-250h-21q-98 0 -180 33q-39 14 -76 40.5t-67.5 67.5t-51 97.5t-24.5 132.5z" />
<glyph unicode="D" horiz-adv-x="768" d="M0 381q0 78 26.5 147.5t73.5 120.5t108.5 81t133.5 30h25v280h329v-1040h-329q-76 0 -142.5 29.5t-117 82t-79 121t-28.5 148.5z" />
<glyph unicode="E" d="M0 514v246h756v-514h-101v-242q-10 -2 -19 -3t-20 -1h-86q-47 0 -95 4t-99 18.5t-102.5 44t-102.5 80.5q-53 51 -78.5 116t-38.5 120q-14 66 -14 131z" />
<glyph unicode="F" horiz-adv-x="432" d="M0 -2v766q0 8 3 33.5t11.5 62.5t24.5 83t47 95q27 45 71 95.5t107.5 95.5t149.5 82t200 57l60 -340q-213 -37 -291 -168q-23 -39 -30 -68.5t-7 -33.5v-760h-346z" />
<glyph unicode="G" horiz-adv-x="790" d="M0 113h379v30h-379v160q0 20 1 36.5t3 29.5q2 14 6 26q39 139 129 228q23 23 55.5 46t76.5 42.5t99.5 32t123.5 12.5h229v-150h2v-493q0 -16 -1 -33t-1 -29q-2 -14 -2 -28q-8 -66 -38 -121.5t-77 -95t-107.5 -63.5t-127.5 -24h-11q-74 0 -139 31t-114.5 84t-78 125 t-28.5 154z" />
<glyph unicode="H" horiz-adv-x="761" d="M0 0v1040h328v-403q78 -2 146.5 -29.5t118.5 -74t79.5 -109t29.5 -131.5v-293h-702z" />
<glyph unicode="I" horiz-adv-x="399" d="M0 2v756h346v-756h-346z" />
<glyph unicode="J" horiz-adv-x="415" d="M4 -514v1270h346v-994q-6 -78 -28 -139q-23 -53 -66 -95t-127 -42h-125z" />
<glyph unicode="K" horiz-adv-x="880" d="M0 0v1040h346v-295h442l-227 -356l258 -389h-819z" />
<glyph unicode="L" horiz-adv-x="415" d="M0 0v1040h346v-1040h-346z" />
<glyph unicode="M" horiz-adv-x="1103" d="M0 0v377q0 80 25.5 150.5t69.5 122.5t103.5 83t127.5 31q51 0 99 -11.5t91 -31.5q41 20 89 31.5t100 11.5q68 0 127 -31t103 -83t69.5 -122.5t25.5 -150.5v-377h-1030z" />
<glyph unicode="N" horiz-adv-x="839" d="M0 0v756h295q68 0 121 -12.5t96 -32t74.5 -43t54.5 -45.5q94 -92 129 -240q2 -10 4 -23q2 -10 3 -26t1 -39v-295h-778z" />
<glyph unicode="O" horiz-adv-x="880" d="M0 377q0 80 29.5 148.5t82 120.5t122 82t149.5 30h41q80 0 149.5 -30t122 -82t82 -120.5t29.5 -148.5q0 -78 -29.5 -147.5t-82 -121t-122 -81t-149.5 -29.5h-41q-80 0 -149.5 29.5t-122 81t-82 121t-29.5 147.5z" />
<glyph unicode="P" horiz-adv-x="759" d="M0 -281v1041h328q76 0 143.5 -30t117.5 -82t78.5 -120.5t28.5 -148.5q0 -78 -26.5 -147.5t-73.5 -121t-109.5 -81t-132.5 -29.5h-26v-281h-328z" />
<glyph unicode="Q" horiz-adv-x="751" d="M0 375q0 80 28.5 149.5t78 121.5t116 82t142.5 30h325v-1186l-325 426h-25q-72 0 -133.5 29.5t-107.5 81t-72.5 120t-26.5 146.5z" />
<glyph unicode="R" horiz-adv-x="704" d="M0 2v338v12q0 10 4 23q31 154 135 258q47 45 132 88t223 43h170l-56 -328h-55q-63 0 -101 -19.5t-61 -39.5q-47 -47 -61 -119q-2 -2 -2 -8v-6v-242h-328z" />
<glyph unicode="S" horiz-adv-x="735" d="M4 528q10 61 39 112.5t72 88.5t96 57.5t113 20.5q104 0 171.5 -28.5t106.5 -63.5q45 -39 68 -90l-109 -80q65 -53 97 -135q21 -54 22 -113q0 -30 -6 -61q-10 -61 -39 -111.5t-71 -87.5t-95.5 -58.5t-110.5 -21.5q-109 0 -176 27.5t-106 62.5q-45 39 -68 90l109 80 q-65 55 -97 137q-21 54 -21 113q0 30 5 61z" />
<glyph unicode="T" horiz-adv-x="489" d="M0 283v995h346v-365h86v-348h-86v-561h-125q-84 0 -129 43t-65 96q-25 61 -27 140z" />
<glyph unicode="U" horiz-adv-x="823" d="M0 461v295h762v-756h-289q-131 0 -213 43t-127 88q-90 94 -125 242q-2 10 -4 22q-2 10 -3 26.5t-1 39.5z" />
<glyph unicode="V" horiz-adv-x="847" d="M0 756h774v-758h-344z" />
<glyph unicode="W" horiz-adv-x="1415" d="M0 758h1346l-345 -760h-665z" />
<glyph unicode="X" horiz-adv-x="1001" d="M6 -2l246 389l-244 371h395l78 -121l76 121h375l-230 -365l261 -395h-381l-97 145l-92 -145h-387z" />
<glyph unicode="Y" horiz-adv-x="991" d="M6 754h377l63 -236l105 236h2h381l-606 -1344l-285 215q41 86 70.5 149.5t50.5 106.5q23 51 39 86z" />
<glyph unicode="Z" horiz-adv-x="917" d="M6 0l309 444h-282v314h885l-310 -443h283v-315h-885z" />
<glyph unicode="a" horiz-adv-x="872" d="M0 0v295q0 23 1 39t3 26q2 12 4 23q39 150 131 240q23 23 55.5 46t76.5 42.5t100.5 32t124.5 12.5h301v-756h-797z" />
<glyph unicode="b" horiz-adv-x="751" d="M0 -2v1040h328v-282h24q70 0 132.5 -30t109.5 -81t73.5 -119.5t26.5 -146.5q0 -80 -28.5 -148.5t-78.5 -121t-117 -82t-142 -29.5h-328z" />
<glyph unicode="c" horiz-adv-x="727" d="M-2 369v10q4 78 24.5 135t51 99t67.5 69t76 43q85 35 190 35h11h250v-762h-250h-21q-98 0 -180 33q-39 14 -76 40.5t-67.5 67.5t-51 97.5t-24.5 132.5z" />
<glyph unicode="d" horiz-adv-x="768" d="M0 381q0 78 26.5 147.5t73.5 120.5t108.5 81t133.5 30h25v280h329v-1040h-329q-76 0 -142.5 29.5t-117 82t-79 121t-28.5 148.5z" />
<glyph unicode="e" d="M0 514v246h756v-514h-101v-242q-10 -2 -19 -3t-20 -1h-86q-47 0 -95 4t-99 18.5t-102.5 44t-102.5 80.5q-53 51 -78.5 116t-38.5 120q-14 66 -14 131z" />
<glyph unicode="f" horiz-adv-x="432" d="M0 -2v766q0 8 3 33.5t11.5 62.5t24.5 83t47 95q27 45 71 95.5t107.5 95.5t149.5 82t200 57l60 -340q-213 -37 -291 -168q-23 -39 -30 -68.5t-7 -33.5v-760h-346z" />
<glyph unicode="g" horiz-adv-x="790" d="M0 113h379v30h-379v160q0 20 1 36.5t3 29.5q2 14 6 26q39 139 129 228q23 23 55.5 46t76.5 42.5t99.5 32t123.5 12.5h229v-150h2v-493q0 -16 -1 -33t-1 -29q-2 -14 -2 -28q-8 -66 -38 -121.5t-77 -95t-107.5 -63.5t-127.5 -24h-11q-74 0 -139 31t-114.5 84t-78 125 t-28.5 154z" />
<glyph unicode="h" horiz-adv-x="761" d="M0 0v1040h328v-403q78 -2 146.5 -29.5t118.5 -74t79.5 -109t29.5 -131.5v-293h-702z" />
<glyph unicode="i" horiz-adv-x="399" d="M0 2v756h346v-756h-346z" />
<glyph unicode="j" horiz-adv-x="415" d="M4 -514v1270h346v-994q-6 -78 -28 -139q-23 -53 -66 -95t-127 -42h-125z" />
<glyph unicode="k" horiz-adv-x="880" d="M0 0v1040h346v-295h442l-227 -356l258 -389h-819z" />
<glyph unicode="l" horiz-adv-x="415" d="M0 0v1040h346v-1040h-346z" />
<glyph unicode="m" horiz-adv-x="1103" d="M0 0v377q0 80 25.5 150.5t69.5 122.5t103.5 83t127.5 31q51 0 99 -11.5t91 -31.5q41 20 89 31.5t100 11.5q68 0 127 -31t103 -83t69.5 -122.5t25.5 -150.5v-377h-1030z" />
<glyph unicode="n" horiz-adv-x="839" d="M0 0v756h295q68 0 121 -12.5t96 -32t74.5 -43t54.5 -45.5q94 -92 129 -240q2 -10 4 -23q2 -10 3 -26t1 -39v-295h-778z" />
<glyph unicode="o" horiz-adv-x="880" d="M0 377q0 80 29.5 148.5t82 120.5t122 82t149.5 30h41q80 0 149.5 -30t122 -82t82 -120.5t29.5 -148.5q0 -78 -29.5 -147.5t-82 -121t-122 -81t-149.5 -29.5h-41q-80 0 -149.5 29.5t-122 81t-82 121t-29.5 147.5z" />
<glyph unicode="p" horiz-adv-x="759" d="M0 -281v1041h328q76 0 143.5 -30t117.5 -82t78.5 -120.5t28.5 -148.5q0 -78 -26.5 -147.5t-73.5 -121t-109.5 -81t-132.5 -29.5h-26v-281h-328z" />
<glyph unicode="q" horiz-adv-x="751" d="M0 375q0 80 28.5 149.5t78 121.5t116 82t142.5 30h325v-1186l-325 426h-25q-72 0 -133.5 29.5t-107.5 81t-72.5 120t-26.5 146.5z" />
<glyph unicode="r" horiz-adv-x="704" d="M0 2v338v12q0 10 4 23q31 154 135 258q47 45 132 88t223 43h170l-56 -328h-55q-63 0 -101 -19.5t-61 -39.5q-47 -47 -61 -119q-2 -2 -2 -8v-6v-242h-328z" />
<glyph unicode="s" horiz-adv-x="735" d="M4 528q10 61 39 112.5t72 88.5t96 57.5t113 20.5q104 0 171.5 -28.5t106.5 -63.5q45 -39 68 -90l-109 -80q65 -53 97 -135q21 -54 22 -113q0 -30 -6 -61q-10 -61 -39 -111.5t-71 -87.5t-95.5 -58.5t-110.5 -21.5q-109 0 -176 27.5t-106 62.5q-45 39 -68 90l109 80 q-65 55 -97 137q-21 54 -21 113q0 30 5 61z" />
<glyph unicode="t" horiz-adv-x="489" d="M0 283v995h346v-365h86v-348h-86v-561h-125q-84 0 -129 43t-65 96q-25 61 -27 140z" />
<glyph unicode="u" horiz-adv-x="823" d="M0 461v295h762v-756h-289q-131 0 -213 43t-127 88q-90 94 -125 242q-2 10 -4 22q-2 10 -3 26.5t-1 39.5z" />
<glyph unicode="v" horiz-adv-x="847" d="M0 756h774v-758h-344z" />
<glyph unicode="w" horiz-adv-x="1415" d="M0 758h1346l-345 -760h-665z" />
<glyph unicode="x" horiz-adv-x="1001" d="M6 -2l246 389l-244 371h395l78 -121l76 121h375l-230 -365l261 -395h-381l-97 145l-92 -145h-387z" />
<glyph unicode="y" horiz-adv-x="991" d="M6 754h377l63 -236l105 236h2h381l-606 -1344l-285 215q41 86 70.5 149.5t50.5 106.5q23 51 39 86z" />
<glyph unicode="z" horiz-adv-x="917" d="M6 0l309 444h-282v314h885l-310 -443h283v-315h-885z" />
<glyph unicode="&#xad;" d="M0 201v346h745v-346h-745z" />
<glyph unicode="&#x2000;" horiz-adv-x="684" />
<glyph unicode="&#x2001;" horiz-adv-x="1368" />
<glyph unicode="&#x2002;" horiz-adv-x="684" />
<glyph unicode="&#x2003;" horiz-adv-x="1368" />
<glyph unicode="&#x2004;" horiz-adv-x="456" />
<glyph unicode="&#x2005;" horiz-adv-x="342" />
<glyph unicode="&#x2006;" horiz-adv-x="228" />
<glyph unicode="&#x2007;" horiz-adv-x="228" />
<glyph unicode="&#x2008;" horiz-adv-x="171" />
<glyph unicode="&#x2009;" horiz-adv-x="273" />
<glyph unicode="&#x200a;" horiz-adv-x="76" />
<glyph unicode="&#x2010;" d="M0 201v346h745v-346h-745z" />
<glyph unicode="&#x2011;" d="M0 201v346h745v-346h-745z" />
<glyph unicode="&#x2012;" d="M0 201v346h745v-346h-745z" />
<glyph unicode="&#x2013;" horiz-adv-x="1104" d="M0 201v346h1024v-346h-1024z" />
<glyph unicode="&#x2014;" horiz-adv-x="2128" d="M0 201v346h2048v-346h-2048z" />
<glyph unicode="&#x202f;" horiz-adv-x="273" />
<glyph unicode="&#x205f;" horiz-adv-x="342" />
<glyph unicode="&#x25fc;" horiz-adv-x="757" d="M0 0v758h758v-758h-758z" />
</font>
</defs>
</svg>
